nColumns=28
nRows=66
DataType=double
version=3
OpenSimVersion=4.1
endheader
time	ground_force_1_vx	ground_force_1_vy	ground_force_1_vz	ground_force_1_px	ground_force_1_py	ground_force_1_pz	ground_force_1_mx	ground_force_1_my	ground_force_1_mz	ground_force_2_vx	ground_force_2_vy	ground_force_2_vz	ground_force_2_px	ground_force_2_py	ground_force_2_pz	ground_force_2_mx	ground_force_2_my	ground_force_2_mz	ground_force_3_vx	ground_force_3_vy	ground_force_3_vz	ground_force_3_px	ground_force_3_py	ground_force_3_pz	ground_force_3_mx	ground_force_3_my	ground_force_3_mz
9.88	-8.02152	232.559	-46.2815	-0.188673	0.006	-0.438309	0	-1.86736	0	9.40823	350.159	74.714	-0.273638	0.006	-0.9961	0	0.630205	0	0	0	0	0	0	0	0	0	0
9.89	-7.97483	231.987	-46.4365	-0.188903	0.006	-0.438223	0	-1.85077	0	9.52192	352.921	74.8305	-0.273692	0.006	-0.996069	0	0.642388	0	0	0	0	0	0	0	0	0	0
9.9	-7.95759	231.574	-46.6308	-0.189157	0.006	-0.438127	0	-1.8372	0	9.64733	355.268	74.8594	-0.273744	0.006	-0.99604	0	0.652494	0	0	0	0	0	0	0	0	0	0
9.91	-7.96745	231.282	-46.854	-0.189411	0.006	-0.438019	0	-1.82703	0	9.77351	357.217	74.8129	-0.273784	0.006	-0.996019	0	0.66095	0	0	0	0	0	0	0	0	0	0
9.92	-8.00413	231.078	-47.0964	-0.189648	0.006	-0.437901	0	-1.82031	0	9.89151	358.789	74.702	-0.273805	0.006	-0.996009	0	0.668364	0	0	0	0	0	0	0	0	0	0
9.93	-8.06899	230.939	-47.3508	-0.189852	0.006	-0.437773	0	-1.81681	0	9.99668	360.006	74.5337	-0.273805	0.006	-0.996011	0	0.675362	0	0	0	0	0	0	0	0	0	0
9.94	-8.1633	230.847	-47.6124	-0.190017	0.006	-0.437637	0	-1.81617	0	10.0899	360.895	74.311	-0.273784	0.006	-0.996024	0	0.682474	0	0	0	0	0	0	0	0	0	0
9.95	-8.28621	230.79	-47.8771	-0.190144	0.006	-0.437493	0	-1.81802	0	10.1767	361.48	74.034	-0.273746	0.006	-0.996043	0	0.690157	0	0	0	0	0	0	0	0	0	0
9.96	-8.43384	230.76	-48.1401	-0.19024	0.006	-0.437345	0	-1.82203	0	10.265	361.797	73.7024	-0.273699	0.006	-0.996065	0	0.698817	0	0	0	0	0	0	0	0	0	0
9.97	-8.60033	230.747	-48.3951	-0.190317	0.006	-0.437197	0	-1.82789	0	10.3617	361.889	73.3183	-0.273647	0.006	-0.996087	0	0.708806	0	0	0	0	0	0	0	0	0	0
9.98	-8.77866	230.747	-48.6335	-0.190388	0.006	-0.437053	0	-1.83537	0	10.4695	361.805	72.8871	-0.273591	0.006	-0.996107	0	0.720398	0	0	0	0	0	0	0	0	0	0
9.99	-8.9597	230.754	-48.8438	-0.190468	0.006	-0.436919	0	-1.84433	0	10.5863	361.595	72.4167	-0.273528	0.006	-0.996125	0	0.733811	0	0	0	0	0	0	0	0	0	0
10	-9.13233	230.768	-49.0142	-0.190576	0.006	-0.436802	0	-1.8547	0	10.7077	361.3	71.9162	-0.27345	0.006	-0.996142	0	0.749134	0	0	0	0	0	0	0	0	0	0
10.01	-9.28522	230.794	-49.1348	-0.190729	0.006	-0.43671	0	-1.8664	0	10.8283	360.96	71.3956	-0.27335	0.006	-0.996162	0	0.766279	0	0	0	0	0	0	0	0	0	0
10.02	-9.40877	230.842	-49.1992	-0.190946	0.006	-0.436649	0	-1.87934	0	10.9429	360.605	70.865	-0.27322	0.006	-0.996187	0	0.785116	0	0	0	0	0	0	0	0	0	0
10.03	-9.4954	230.926	-49.2057	-0.191242	0.006	-0.436624	0	-1.89322	0	11.0495	360.266	70.3338	-0.273058	0.006	-0.996219	0	0.805564	0	0	0	0	0	0	0	0	0	0
10.04	-9.53963	231.058	-49.1575	-0.191625	0.006	-0.436637	0	-1.90753	0	11.1503	359.967	69.8099	-0.272865	0.006	-0.996258	0	0.827446	0	0	0	0	0	0	0	0	0	0
10.05	-9.53822	231.25	-49.0614	-0.192102	0.006	-0.436686	0	-1.92165	0	11.252	359.73	69.2987	-0.272647	0.006	-0.996305	0	0.850499	0	0	0	0	0	0	0	0	0	0
10.06	-9.48912	231.507	-48.9265	-0.192675	0.006	-0.436769	0	-1.93498	0	11.3647	359.575	68.8046	-0.272415	0.006	-0.996354	0	0.874501	0	0	0	0	0	0	0	0	0	0
10.07	-9.3905	231.832	-48.7636	-0.193349	0.006	-0.436882	0	-1.94707	0	11.497	359.522	68.3322	-0.272177	0.006	-0.996402	0	0.899364	0	0	0	0	0	0	0	0	0	0
10.08	-9.24023	232.229	-48.5855	-0.194125	0.006	-0.437018	0	-1.95757	0	11.6518	359.584	67.8875	-0.271937	0.006	-0.996448	0	0.924894	0	0	0	0	0	0	0	0	0	0
10.09	-9.03701	232.706	-48.4069	-0.195003	0.006	-0.437172	0	-1.96636	0	11.8236	359.778	67.4775	-0.271693	0.006	-0.996491	0	0.95072	0	0	0	0	0	0	0	0	0	0
10.1	-8.78183	233.269	-48.2441	-0.195981	0.006	-0.437336	0	-1.97346	0	12.0023	360.116	67.1102	-0.271438	0.006	-0.996533	0	0.976483	0	0	0	0	0	0	0	0	0	0
10.11	-8.47869	233.924	-48.113	-0.197049	0.006	-0.437503	0	-1.9789	0	12.1763	360.608	66.7929	-0.271164	0.006	-0.996574	0	1.00191	0	0	0	0	0	0	0	0	0	0
10.12	-8.13393	234.665	-48.0268	-0.198188	0.006	-0.437665	0	-1.98279	0	12.3348	361.256	66.5304	-0.270862	0.006	-0.996616	0	1.02677	0	0	0	0	0	0	0	0	0	0
10.13	-7.75631	235.485	-47.9944	-0.199377	0.006	-0.437816	0	-1.9854	0	12.4686	362.05	66.3233	-0.270529	0.006	-0.996661	0	1.05076	0	0	0	0	0	0	0	0	0	0
10.14	-7.35765	236.371	-48.0204	-0.20059	0.006	-0.437949	0	-1.98711	0	12.5711	362.966	66.1678	-0.270162	0.006	-0.996708	0	1.07349	0	0	0	0	0	0	0	0	0	0
10.15	-6.95287	237.311	-48.1064	-0.201795	0.006	-0.438061	0	-1.9884	0	12.6375	363.967	66.0565	-0.269765	0.006	-0.996756	0	1.09456	0	0	0	0	0	0	0	0	0	0
10.16	-6.5595	238.298	-48.2512	-0.202962	0.006	-0.43815	0	-1.98983	0	12.6652	365.011	65.9796	-0.269344	0.006	-0.996803	0	1.11342	0	0	0	0	0	0	0	0	0	0
10.17	-6.19626	239.32	-48.4509	-0.204058	0.006	-0.438212	0	-1.99195	0	12.6527	366.049	65.9266	-0.268905	0.006	-0.996849	0	1.12953	0	0	0	0	0	0	0	0	0	0
10.18	-5.88067	240.365	-48.6986	-0.205054	0.006	-0.438246	0	-1.99526	0	12.5983	367.033	65.888	-0.268453	0.006	-0.996893	0	1.14261	0	0	0	0	0	0	0	0	0	0
10.19	-5.62652	241.413	-48.985	-0.205927	0.006	-0.438251	0	-2.0002	0	12.4992	367.919	65.8558	-0.26799	0.006	-0.996935	0	1.15251	0	0	0	0	0	0	0	0	0	0
10.2	-5.44234	242.441	-49.2995	-0.206661	0.006	-0.43823	0	-2.00703	0	12.3515	368.666	65.8236	-0.267517	0.006	-0.996976	0	1.15911	0	0	0	0	0	0	0	0	0	0
10.21	-5.33202	243.431	-49.632	-0.207251	0.006	-0.438183	0	-2.01588	0	12.1523	369.244	65.7868	-0.267032	0.006	-0.997018	0	1.16254	0	0	0	0	0	0	0	0	0	0
10.22	-5.29642	244.369	-49.975	-0.207701	0.006	-0.438116	0	-2.02669	0	11.8996	369.628	65.7413	-0.266531	0.006	-0.997061	0	1.16311	0	0	0	0	0	0	0	0	0	0
10.23	-5.33503	245.253	-50.3241	-0.208015	0.006	-0.438033	0	-2.03925	0	11.5945	369.803	65.6827	-0.266014	0.006	-0.997107	0	1.16122	0	0	0	0	0	0	0	0	0	0
10.24	-5.44691	246.09	-50.6784	-0.208203	0.006	-0.437936	0	-2.05332	0	11.2407	369.764	65.6065	-0.265479	0.006	-0.997156	0	1.1573	0	0	0	0	0	0	0	0	0	0
10.25	-5.63078	246.893	-51.0392	-0.208273	0.006	-0.43783	0	-2.06865	0	10.8458	369.514	65.5085	-0.264926	0.006	-0.997209	0	1.15178	0	0	0	0	0	0	0	0	0	0
10.26	-5.88484	247.686	-51.4098	-0.20823	0.006	-0.437713	0	-2.08502	0	10.4198	369.069	65.3852	-0.264357	0.006	-0.997263	0	1.14513	0	0	0	0	0	0	0	0	0	0
10.27	-6.2062	248.49	-51.7945	-0.208081	0.006	-0.437588	0	-2.1023	0	9.97537	368.449	65.2338	-0.263776	0.006	-0.997319	0	1.13792	0	0	0	0	0	0	0	0	0	0
10.28	-6.58981	249.326	-52.1961	-0.207827	0.006	-0.437453	0	-2.12041	0	9.52582	367.678	65.0528	-0.263189	0.006	-0.997374	0	1.13057	0	0	0	0	0	0	0	0	0	0
10.29	-7.02632	250.204	-52.6149	-0.207476	0.006	-0.43731	0	-2.13926	0	9.08448	366.778	64.842	-0.262601	0.006	-0.997428	0	1.12322	0	0	0	0	0	0	0	0	0	0
10.3	-7.50053	251.127	-53.0481	-0.20704	0.006	-0.43716	0	-2.1587	0	8.66337	365.773	64.6039	-0.262019	0.006	-0.99748	0	1.11586	0	0	0	0	0	0	0	0	0	0
10.31	-7.99171	252.085	-53.4897	-0.206538	0.006	-0.437004	0	-2.17848	0	8.27235	364.689	64.3434	-0.261448	0.006	-0.99753	0	1.10842	0	0	0	0	0	0	0	0	0	0
10.32	-8.47597	253.064	-53.9315	-0.205996	0.006	-0.436847	0	-2.19824	0	7.91912	363.557	64.0677	-0.260896	0.006	-0.997576	0	1.10074	0	0	0	0	0	0	0	0	0	0
10.33	-8.92938	254.044	-54.3651	-0.205441	0.006	-0.436692	0	-2.21757	0	7.60929	362.406	63.7862	-0.260368	0.006	-0.997619	0	1.09267	0	0	0	0	0	0	0	0	0	0
10.34	-9.33055	255.005	-54.7817	-0.204901	0.006	-0.436545	0	-2.23605	0	7.34603	361.267	63.509	-0.25987	0.006	-0.997657	0	1.08421	0	0	0	0	0	0	0	0	0	0
10.35	-9.66224	255.926	-55.1728	-0.204398	0.006	-0.436409	0	-2.25333	0	7.13022	360.171	63.2461	-0.259409	0.006	-0.997692	0	1.07546	0	0	0	0	0	0	0	0	0	0
10.36	-9.91238	256.791	-55.5312	-0.203946	0.006	-0.436286	0	-2.26911	0	6.96093	359.142	63.0067	-0.258989	0.006	-0.997722	0	1.06647	0	0	0	0	0	0	0	0	0	0
10.37	-10.0746	257.584	-55.8513	-0.203556	0.006	-0.436179	0	-2.2831	0	6.83584	358.198	62.7985	-0.258611	0.006	-0.997748	0	1.0573	0	0	0	0	0	0	0	0	0	0
10.38	-10.1481	258.294	-56.128	-0.203229	0.006	-0.436088	0	-2.29507	0	6.75204	357.353	62.6263	-0.258278	0.006	-0.99777	0	1.04804	0	0	0	0	0	0	0	0	0	0
10.39	-10.1361	258.912	-56.3565	-0.202959	0.006	-0.436015	0	-2.30487	0	6.70656	356.616	62.4926	-0.257989	0.006	-0.997789	0	1.03874	0	0	0	0	0	0	0	0	0	0
10.4	-10.0447	259.43	-56.5318	-0.20274	0.006	-0.43596	0	-2.31232	0	6.69625	355.994	62.397	-0.257743	0.006	-0.997804	0	1.02944	0	0	0	0	0	0	0	0	0	0
10.41	-9.88247	259.841	-56.6484	-0.202559	0.006	-0.435923	0	-2.31724	0	6.71737	355.495	62.3371	-0.257538	0.006	-0.997816	0	1.02012	0	0	0	0	0	0	0	0	0	0
10.42	-9.65835	260.14	-56.7006	-0.202402	0.006	-0.435905	0	-2.31949	0	6.76477	355.128	62.3099	-0.257372	0.006	-0.997824	0	1.01067	0	0	0	0	0	0	0	0	0	0
10.43	-9.38043	260.321	-56.6829	-0.202255	0.006	-0.435908	0	-2.31904	0	6.83152	354.905	62.3134	-0.257238	0.006	-0.997828	0	1.00093	0	0	0	0	0	0	0	0	0	0
10.44	-9.05555	260.376	-56.5903	-0.202103	0.006	-0.435933	0	-2.31605	0	6.90913	354.837	62.3468	-0.257131	0.006	-0.99783	0	0.9906	0	0	0	0	0	0	0	0	0	0
10.45	-8.6899	260.299	-56.4178	-0.201932	0.006	-0.43598	0	-2.31087	0	6.98828	354.936	62.4112	-0.257045	0.006	-0.997828	0	0.979428	0	0	0	0	0	0	0	0	0	0
10.46	-8.28964	260.075	-56.1608	-0.201726	0.006	-0.436051	0	-2.30399	0	7.05968	355.211	62.5084	-0.256974	0.006	-0.997824	0	0.967226	0	0	0	0	0	0	0	0	0	0
10.47	-7.86191	259.687	-55.8152	-0.201469	0.006	-0.436148	0	-2.29598	0	7.11524	355.668	62.6406	-0.256916	0.006	-0.997818	0	0.953832	0	0	0	0	0	0	0	0	0	0
10.48	-7.4158	259.114	-55.3778	-0.201142	0.006	-0.436271	0	-2.28738	0	7.14861	356.312	62.8099	-0.256866	0.006	-0.99781	0	0.939149	0	0	0	0	0	0	0	0	0	0
10.49	-6.96309	258.333	-54.8465	-0.200727	0.006	-0.436419	0	-2.27868	0	7.15502	357.145	63.019	-0.256823	0.006	-0.997801	0	0.923106	0	0	0	0	0	0	0	0	0	0
10.5	-6.51915	257.322	-54.2218	-0.200205	0.006	-0.436593	0	-2.27023	0	7.13083	358.178	63.2715	-0.256784	0.006	-0.997792	0	0.905681	0	0	0	0	0	0	0	0	0	0
10.51	-6.1039	256.063	-53.5073	-0.199557	0.006	-0.43679	0	-2.26217	0	7.07309	359.418	63.5715	-0.256748	0.006	-0.99778	0	0.886987	0	0	0	0	0	0	0	0	0	0
10.52	-5.74306	254.543	-52.7102	-0.198765	0.006	-0.437009	0	-2.25439	0	6.9797	360.874	63.9229	-0.256713	0.006	-0.997767	0	0.867243	0	0	0	0	0	0	0	0	0	0
10.53	-5.46788	252.757	-51.841	-0.197812	0.006	-0.437244	0	-2.24643	0	6.84953	362.552	64.3297	-0.256678	0.006	-0.997753	0	0.84669	0	0	0	0	0	0	0	0	0	0
